PathFileType	4	(X/Y/Z)	C:\Users\Biomechanik\SynologyDrive\AlexP\Athlete_03\Athlete_3_25_03_31\Static_01\marker_experimental.trc
DataRate	CameraRate	NumFrames	NumMarkers	Units	OrigDataRate	OrigDataStartFrame	OrigNumFrames
200	200	4	80	mm	200	46	37
Frame#	Time	BL			BR			GLAB			RFHD			LFHD			C7			T6			SPINMOL			SPINM2			SPINM3			T12			BELTOL			BELT2			BELT3			SACROL			SACR2			SACR3			LASI			RASI			LPSI			RPSI			LTHOL			LTH2			LTH3			LKNEL			LKNEM			LFIB			LSHAOL			LSHA2			LSHA3			LMALL			LMALM			LHEE			LTOE			LM5			RTHOL			RTH2			RTH3			RKNEL			RKNEM			RFIB			RSHAOL			RSHA2			RSHA3			RMALL			RMALM			RHEE			RTOE			RM5			STRN			XIPH			LACR			LUAOL			LUA2			LUA3			LCUBL			LCUBM			LLAOL			LLA2			LLA3			LWRR			LWRU			RACR			RUAOL			RUA2			RUA3			RCUBL			RCUBM			RLAOL			RLA2			RLA3			RWRR			RWRU			*73			LKJCWK			RKJCWK			RAJCWK			LAJCWK			RHJCWK			LHJCWK
		X1	Y1	Z1	X2	Y2	Z2	X3	Y3	Z3	X4	Y4	Z4	X5	Y5	Z5	X6	Y6	Z6	X7	Y7	Z7	X8	Y8	Z8	X9	Y9	Z9	X10	Y10	Z10	X11	Y11	Z11	X12	Y12	Z12	X13	Y13	Z13	X14	Y14	Z14	X15	Y15	Z15	X16	Y16	Z16	X17	Y17	Z17	X18	Y18	Z18	X19	Y19	Z19	X20	Y20	Z20	X21	Y21	Z21	X22	Y22	Z22	X23	Y23	Z23	X24	Y24	Z24	X25	Y25	Z25	X26	Y26	Z26	X27	Y27	Z27	X28	Y28	Z28	X29	Y29	Z29	X30	Y30	Z30	X31	Y31	Z31	X32	Y32	Z32	X33	Y33	Z33	X34	Y34	Z34	X35	Y35	Z35	X36	Y36	Z36	X37	Y37	Z37	X38	Y38	Z38	X39	Y39	Z39	X40	Y40	Z40	X41	Y41	Z41	X42	Y42	Z42	X43	Y43	Z43	X44	Y44	Z44	X45	Y45	Z45	X46	Y46	Z46	X47	Y47	Z47	X48	Y48	Z48	X49	Y49	Z49	X50	Y50	Z50	X51	Y51	Z51	X52	Y52	Z52	X53	Y53	Z53	X54	Y54	Z54	X55	Y55	Z55	X56	Y56	Z56	X57	Y57	Z57	X58	Y58	Z58	X59	Y59	Z59	X60	Y60	Z60	X61	Y61	Z61	X62	Y62	Z62	X63	Y63	Z63	X64	Y64	Z64	X65	Y65	Z65	X66	Y66	Z66	X67	Y67	Z67	X68	Y68	Z68	X69	Y69	Z69	X70	Y70	Z70	X71	Y71	Z71	X72	Y72	Z72	X73	Y73	Z73	X74	Y74	Z74	X75 	Y75 	Z75 	X76 	Y76 	Z76 	X77 	Y77 	Z77 	X78 	Y78 	Z78 	X79 	Y79 	Z79 	X80 	Y80 	Z80

47	0.23	960.7618	36.2013	-1933.5236	1063.1616	32.9434	86.6601	356.9356	1604.4847	-1191.6239	306.3083	1630.8707	-1129.1862	316.2718	1630.5513	-1264.9955	133.1181	1438.5675	-1209.2887	nan	nan	nan	91.6875	1229.3859	-1240.8878	85.8771	1220.2985	-1191.4431	99.104	1164.9764	-1225.9595	115.7013	1101.5471	-1222.7386	87.9863	1080.4006	-1237.3036	87.3486	1077.0814	-1187.0929	81.1162	1017.4899	-1217.0157	97.3792	957.9451	-1241.3948	97.9036	955.972	-1189.9615	79.6331	898.5015	-1217.4097	328.4921	935.9778	-1332.5602	319.4032	927.2614	-1085.293	109.7231	975.3485	-1260.3229	110.2677	966.5717	-1175.7002	190.1478	682.7914	-1401.9155	140.8701	629.2411	-1369.51	187.1867	623.023	-1388.2341	236.4164	487.4779	-1384.4014	254.9867	462.7123	-1264.3292	193.9322	425.3363	-1389.3461	159.9201	328.273	-1404.5632	110.7151	266.7925	-1391.303	159.6239	266.3954	-1402.6128	142.6841	81.2112	-1381.6436	183.4865	89.667	-1295.8154	94.899	67.2372	-1318.3923	309.8459	47.7616	-1348.6412	253.0664	31.1788	-1443.5934	156.5979	696.2809	-1026.2712	207.4601	638.1021	-1006.1672	164.3233	635.0629	-1031.1622	199.2709	496.5143	-1027.0726	237.6494	464.3013	-1148.4205	152.7253	432.5675	-1029.757	118.6696	346.8345	-1019.7296	148.3498	275.5257	-1004.2719	107.0826	286.1949	-1029.9832	124.812	85.0074	-1041.7717	188.8461	95.5802	-1114.6965	90.5922	63.2888	-1115.0364	292.6568	47.6566	-1043.7887	216.4555	39.4912	-964.2833	315.8339	1366.6326	-1204.0867	347.5276	1221.02	-1205.4131	194.1634	1435.0339	-1355.326	161.4646	1409.6573	-1494.241	150.4729	1383.9307	-1554.4445	194.0768	1412.2539	-1551.4771	175.7459	1399.7234	-1658.8141	249.0648	1309.6301	-1656.5492	174.5143	1374.0038	-1749.2869	167.7755	1314.5188	-1802.0427	179.7121	1362.9513	-1810.2423	193.343	1353.6671	-1914.4176	272.3417	1350.5959	-1906.6407	193.8253	1430.2701	-1064.4302	150.8515	1412.5681	-941.8649	168.568	1409.936	-878.1927	121.8948	1389.9231	-888.01	144.5606	1392.5001	-773.4071	200.7249	1296.9983	-773.8304	133.254	1372.6936	-674.4256	149.7544	1414.7633	-608.7117	132.7192	1367.2037	-612.1315	145.0879	1378.6677	-519.9846	222.9014	1354.0486	-507.7313	93.6435	1266.2705	-1218.8521	245.7015	475.0951	-1324.3653	218.4602	480.4078	-1087.7466	155.1647	79.7583	-1077.9772	160.8483	74.8885	-1339.1184	261.4267	851.6205	-1124.9759	267.9576	857.8838	-1302.652
48	0.235	960.7605	36.2073	-1933.5311	1063.1532	32.9281	86.6442	357.002	1604.4626	-1191.562	306.4124	1630.8331	-1129.0854	316.4039	1630.5529	-1264.9583	133.1421	1438.5693	-1209.2661	nan	nan	nan	91.7506	1229.3834	-1240.8585	85.9175	1220.3046	-1191.4135	99.1496	1164.9771	-1225.9503	115.737	1101.5549	-1222.7112	88.0092	1080.4027	-1237.2845	87.3855	1077.0858	-1187.0642	81.1302	1017.5149	-1217.0071	97.4151	957.9503	-1241.3523	97.9642	955.9734	-1189.913	79.6957	898.5139	-1217.3765	328.5221	935.9705	-1332.5448	319.7786	927.4897	-1084.9072	109.7503	975.356	-1260.3071	110.3176	966.5728	-1175.671	190.1493	682.8003	-1401.9196	140.8671	629.2367	-1369.5175	187.1731	623.0391	-1388.2374	236.4273	487.4784	-1384.3969	254.9188	462.6835	-1264.3662	193.9294	425.3384	-1389.3203	159.9322	328.2673	-1404.553	110.7197	266.7982	-1391.3	159.6241	266.4033	-1402.6113	142.6723	81.2122	-1381.6381	183.4872	89.6671	-1295.814	94.8911	67.2342	-1318.3907	309.8517	47.7652	-1348.6372	253.0833	31.1393	-1443.5778	156.6341	696.2875	-1026.2616	207.5134	638.0964	-1006.1597	164.3589	635.0593	-1031.1559	199.2882	496.514	-1027.0631	237.6784	464.307	-1148.408	152.7448	432.5554	-1029.7449	118.685	346.8363	-1019.7175	148.3527	275.5237	-1004.2599	107.1037	286.2048	-1029.9661	124.8207	84.9919	-1041.7748	188.8551	95.5863	-1114.6809	90.5321	63.3428	-1115.0298	292.6636	47.6641	-1043.7811	216.4501	39.4726	-964.2838	315.8907	1366.6243	-1204.0453	347.5846	1220.9849	-1205.3932	194.2475	1435.037	-1355.2584	161.5359	1409.6926	-1494.1693	150.6543	1384.1205	-1554.4583	194.1209	1412.3119	-1551.4419	175.7875	1399.764	-1658.7703	249.0911	1309.6744	-1656.5206	174.5519	1374.0599	-1749.2533	167.8702	1314.5947	-1801.978	179.7787	1363.0189	-1810.1785	193.3223	1353.7314	-1914.3939	272.3738	1350.6519	-1906.6066	193.8798	1430.2653	-1064.3953	150.914	1412.5444	-941.8051	168.6284	1409.9155	-878.1698	122.0105	1389.99	-888.0871	144.6238	1392.4783	-773.3777	200.9019	1297.0186	-773.6835	133.2974	1372.666	-674.3968	149.7045	1414.7031	-608.5849	132.7696	1367.1771	-612.0918	145.1385	1378.6208	-519.9586	222.9363	1354.0085	-507.691	93.7256	1266.275	-1218.8118	245.673	475.0809	-1324.3815	218.4833	480.4105	-1087.7355	155.1731	79.7536	-1077.9711	160.8433	74.8889	-1339.1144	261.8005	851.7768	-1124.6045	268.0745	857.8622	-1302.296
49	0.24	960.756	36.2105	-1933.5122	1063.1593	32.9324	86.6449	357.0937	1604.4248	-1191.4945	306.4873	1630.7931	-1128.9955	316.4926	1630.5499	-1264.8866	133.231	1438.5696	-1209.2222	nan	nan	nan	91.794	1229.3959	-1240.8076	85.9451	1220.3141	-1191.3871	99.2247	1164.9813	-1225.9102	115.7852	1101.5671	-1222.6758	88.077	1080.4297	-1237.2472	87.4429	1077.0929	-1187.0233	81.1732	1017.5041	-1216.9696	97.463	957.9456	-1241.3154	97.995	955.9683	-1189.8986	79.7124	898.5178	-1217.3478	328.5475	935.9488	-1332.5223	319.5609	927.2979	-1085.2197	109.7915	975.3524	-1260.2732	110.3689	966.5685	-1175.6486	190.1554	682.834	-1401.9139	140.8859	629.2423	-1369.4987	187.199	623.0337	-1388.2247	236.453	487.4779	-1384.3849	254.8593	462.6365	-1264.4353	193.9455	425.3449	-1389.3071	159.9346	328.2676	-1404.5466	110.7139	266.8119	-1391.2903	159.6317	266.3994	-1402.6018	142.6769	81.2087	-1381.6473	183.4933	89.6625	-1295.8179	94.8963	67.2438	-1318.3936	309.853	47.7589	-1348.6279	253.0865	31.1394	-1443.5768	156.6648	696.2618	-1026.2506	207.5405	638.0983	-1006.152	164.4014	635.0531	-1031.1415	199.3112	496.5118	-1027.0499	237.6758	464.3087	-1148.4015	152.7631	432.5568	-1029.7405	118.6292	346.6904	-1019.81	148.363	275.5226	-1004.2581	107.1161	286.1998	-1029.9725	124.8182	84.9995	-1041.7625	188.8743	95.5093	-1114.6498	90.5173	63.3645	-1115.0186	292.6675	47.6561	-1043.7898	216.4643	39.5161	-964.2405	315.964	1366.6305	-1204.0072	347.6432	1220.9855	-1205.3721	194.3017	1435.0577	-1355.2192	161.5718	1409.7207	-1494.1477	150.7293	1384.1631	-1554.3987	194.1682	1412.3409	-1551.3966	175.858	1399.8033	-1658.7188	249.1414	1309.6788	-1656.48	174.5569	1374.1356	-1749.2094	167.9159	1314.6553	-1801.9423	179.8078	1363.0884	-1810.1383	193.3679	1353.804	-1914.3521	272.3985	1350.7178	-1906.5653	193.7086	1430.2471	-1064.2783	150.9735	1412.5159	-941.777	168.6397	1409.89	-878.1459	122.0311	1389.8427	-887.9438	144.6778	1392.4272	-773.3396	200.9691	1296.9601	-773.6708	133.3549	1372.6312	-674.3566	149.7604	1414.6744	-608.5572	132.8135	1367.1322	-612.0648	145.185	1378.583	-519.9413	222.9684	1353.9796	-507.6603	93.7737	1266.282	-1218.7754	245.6562	475.0572	-1324.4101	218.4935	480.4102	-1087.7257	155.1815	79.7189	-1077.9491	160.8491	74.8848	-1339.1205	261.571	851.6447	-1124.8727	268.0276	857.8602	-1302.553
50	0.245	960.7495	36.198	-1933.5201	1063.1537	32.9264	86.6431	357.2049	1604.3729	-1191.4242	306.5839	1630.7533	-1128.9264	316.6189	1630.5287	-1264.8319	133.2913	1438.569	-1209.1841	nan	nan	nan	91.8557	1229.4052	-1240.7705	86.0488	1220.3022	-1191.3391	99.2529	1164.9836	-1225.8895	115.8189	1101.5753	-1222.6515	87.9839	1080.4235	-1237.2632	87.4793	1077.1007	-1186.9957	81.2169	1017.5323	-1216.9523	97.4762	957.9556	-1241.2903	98.0359	955.9645	-1189.8822	79.7555	898.51	-1217.3301	328.5779	935.9561	-1332.5122	319.879	927.4769	-1084.884	110.0813	975.3157	-1260.2039	110.3999	966.5677	-1175.6306	190.0472	682.7902	-1402.149	140.9243	629.2362	-1369.4709	187.211	623.0355	-1388.2167	236.4478	487.4861	-1384.3826	254.8192	462.6025	-1264.4825	193.9595	425.3503	-1389.3146	159.9379	328.2892	-1404.5454	110.7129	266.8286	-1391.3033	159.6444	266.4104	-1402.6028	142.6616	81.2309	-1381.6292	183.5018	89.6722	-1295.804	94.8995	67.2417	-1318.3944	309.8461	47.7599	-1348.6318	253.0472	31.2159	-1443.6156	156.6921	696.2547	-1026.2194	207.5625	638.082	-1006.149	164.429	635.0504	-1031.1313	199.3301	496.5151	-1027.0425	237.7061	464.2869	-1148.3953	152.7773	432.5564	-1029.7548	118.6481	346.6995	-1019.808	148.3769	275.517	-1004.2563	107.1262	286.2075	-1029.9539	124.8251	84.9935	-1041.7692	188.8497	95.5747	-1114.6842	90.6693	63.1921	-1115.0205	292.6619	47.6436	-1043.7874	216.4534	39.4976	-964.2628	316.0093	1366.6422	-1203.9753	347.6923	1220.9722	-1205.3445	194.3772	1435.0747	-1355.1562	161.6527	1409.7543	-1494.0879	150.7704	1384.1495	-1554.358	194.2255	1412.3669	-1551.3606	175.8914	1399.8588	-1658.6796	249.1784	1309.7267	-1656.4523	174.5383	1374.1741	-1749.1967	167.9669	1314.7256	-1801.891	179.8405	1363.149	-1810.0928	193.3593	1353.8661	-1914.3104	272.4195	1350.7737	-1906.525	194.0112	1430.243	-1064.3279	151.0202	1412.5112	-941.7488	168.6856	1409.8453	-878.0868	122.0629	1389.8082	-887.9245	144.7283	1392.3928	-773.3105	201.014	1296.9346	-773.6425	133.4059	1372.5906	-674.3267	149.8159	1414.6377	-608.5128	132.859	1367.1047	-612.0261	145.2192	1378.5253	-519.9017	223.0029	1353.9717	-507.6374	93.77	1266.3231	-1218.7493	245.6335	475.0443	-1324.4326	218.5181	480.401	-1087.7189	155.1717	79.7488	-1077.9703	160.846	74.9006	-1339.1034	261.8885	851.7676	-1124.5651	268.1307	857.8521	-1302.258
